
<svg id="Layer_1" data-name="Layer 1" xmlns="http://www.w3.org/2000/svg" viewBox="0 0 636.89581 637.47862">
  <defs>
    <style>
      .cls-1 {
        fill: #010101;
      }
    </style>
  </defs>
  <title>Rick-and-Morty-001</title>
  <path class="cls-1" d="M400.67689,718.47844c-176.72246.18278-320.34052-144.0403-318.77125-321.77725,1.52933-173.213,142.89147-316.19724,319.33-315.6999C577.15846,81.49717,718.194,224.11836,718.78681,398.5214,719.39124,576.34424,575.55956,718.50771,400.67689,718.47844Zm296.13247-311.5717a324.47973,324.47973,0,0,0-2.39414-48.00172c-3.653-27.32566-10.10774-53.89994-21.00479-79.157a298.13312,298.13312,0,0,0-47.54865-76.14647c-23.295-27.22007-50.85493-48.9946-81.75-66.66516a301.31442,301.31442,0,0,0-88.40042-32.16c-14.29343-2.80331-28.82277-4.17951-43.36037-5.25011-16.475-1.21329-32.77122.53278-49.05961,2.74505-21.01108,2.85371-41.69511,6.90078-61.69122,14.27456a318.24815,318.24815,0,0,0-54.17687,25.6039,305.88319,305.88319,0,0,0-67.06749,54.90416,289.39941,289.39941,0,0,0-60.16246,99.7578,278.35847,278.35847,0,0,0-14.0502,57.28573c-2.72192,20.34752-2.85355,40.82521-2.12035,61.29055a236.7936,236.7936,0,0,0,5.73628,42.53593,298.92578,298.92578,0,0,0,13.33123,44.93265c9.59429,24.45256,21.42386,47.63186,37.25078,68.66413,3.00617,3.99483,6.25534,7.8094,9.45936,11.65135,1.1169,1.33924,2.62978,2.29022,3.87218.28156a19.31743,19.31743,0,0,0,2.47667-5.647c2.29207-9.89979,5.72453-19.45746,8.56388-29.19113,4.34767-14.90432,10.13685-29.36426,13.96841-44.41782a12.76033,12.76033,0,0,1,7.13852-9.03786c7.2352-3.64365,14.94419-6.07961,22.39-9.17871,11.38989-4.74073,22.82743-9.36126,33.97651-14.66059,2.82577-1.34318,4.42521-3.32891,4.3314-6.571-.09837-3.39952-1.00673-6.20359-4.53823-7.56868-3.17981-1.22909-6.13433-2.951-9.35134-4.1531-5.41374-2.02288-10.42475-4.7971-14.26894-9.31754a82.05778,82.05778,0,0,1-16.36-31.66895,215.99024,215.99024,0,0,1-7.6503-46.61266c-.08034-1.55752-.03469-3.76349-2.15462-3.58078-1.93267.16659-1.31,2.33719-1.293,3.6951a162.24813,162.24813,0,0,0,3.564,30.22662,141.207,141.207,0,0,0,4.28035,17.42307,158.40924,158.40924,0,0,0,12.47983,27.921c1.25838,2.19736.89409,3.6524-1.08438,4.92516a42.22,42.22,0,0,1-8.15353,4.1052c-3.89406,1.44782-5.00147.89892-5.37294-3.23344-.3723-4.14191-.67732-8.30151-.738-12.45739-.12178-8.33868-.797-8.99131-9.21056-7.89463-6.18763.80645-12.35714,1.80236-18.56587,2.378-3.84926.35689-4.58156-.84608-3.58911-4.56231,2.39243-8.95828,4.66779-17.94977,7.21395-26.864.91806-3.21421-.12574-4.80178-3.06328-5.84767-7.82452-2.78585-15.80175-5.0234-23.79742-7.26117-8.44993-2.36487-7.89059-3.14838-3.09146-8.662a191.58228,191.58228,0,0,1,23.24519-22.87382c3.54153-2.89074,3.90939-4.61675,1.52515-7.72761-5.14759-6.71629-11.41475-12.04852-19.53433-14.93762-6.58683-2.34364-13.48179-3.50542-20.1958-5.35813-1.0503-.28984-2.365-.355-2.6222-1.651-.23977-1.20843,1.05807-1.52069,1.77874-2.07882,3.47848-2.69392,6.9272-5.43741,10.53229-7.95446,8.41932-5.87835,17.32685-11.05146,25.33381-17.527,5.65442-4.57291,5.88977-5.9663,2.17179-12.17009-1.19111-1.98751-2.21461-4.08284-3.49882-6.006-6.0966-9.12986-14.31248-16.33413-21.97981-24.03581-.57846-.581-1.73607-.87788-1.51777-1.88908.25883-1.199,1.57755-.92591,2.442-1.26386a6.48377,6.48377,0,0,1,1.43969-.28138c12.35874-1.76635,24.73382-3.37606,37.16922-4.54113,4.8656-.45587,9.67673-1.48114,14.51827-2.20987,3.555-.53508,4.59483-2.88321,4.28187-6.04952a70.01556,70.01556,0,0,0-1.46723-9.78713,137.56335,137.56335,0,0,0-7.62662-21.759c-2.24348-5.21159-1.68921-5.86317,3.89783-5.18709q.54724.06621,1.09024.16677a147.8227,147.8227,0,0,1,33.24438,10.1231c2.63651,1.16832,4.18719.76361,5.699-1.8205a60.07213,60.07213,0,0,0,6.15888-14.45219c2.48943-9.07959,4.582-18.26771,6.86751-27.40369.83293-3.3294,1.5927-3.58487,4.38636-1.51863a40.10146,40.10146,0,0,1,6.49359,5.88664c6.34225,7.29584,12.61373,14.65522,19.061,21.85716,5.659,6.3214,5.94788,6.23461,11.82672.27546,11.5901-11.74842,24.36418-21.84742,39.601-28.55742,2.50921-1.105,3.68426-1.15057,3.78983,2.18751.25163,7.95593.836,15.90174,1.31276,23.85a97.49957,97.49957,0,0,0,3.614,20.56974c.75048,2.67108,2.24358,3.4937,4.94639,2.613,6.85685-2.23418,13.62271-4.69822,20.34561-7.30965a160.94384,160.94384,0,0,1,18.34073-6.40739c.89752-.229,2.08788-.70816,2.77938.15466.76224.95106-.27259,1.79243-.72189,2.60192-2.25257,4.05856-4.35921,8.21182-6.84105,12.12646-4.84208,7.63755-9.68793,15.2655-14.10284,23.16371-2.64508,4.732-2.35777,5.72469,2.85084,6.32855,5.34749.61991,10.74583.78672,16.11276,1.2567,7.4399.65144,14.87311,1.38181,22.30521,2.11822,2.706.26812,3.68022,1.31385,1.44333,3.62414-1.19184,1.231-2.29754,2.54571-3.49625,3.76962q-12.58013,12.84462-25.178,25.67184c-2.9,2.96609-2.74473,4.147,1.11162,5.762,3.60092,1.50795,7.35489,2.65263,11.04935,3.93451,6.78808,2.35535,13.81,4.04449,20.36554,7.05835,3.50428,1.611,3.58992,2.54692.60124,5.06137-6.22141,5.23433-13.28531,9.16246-20.53745,12.681-8.112,3.93567-16.513,7.27464-24.635,11.191-4.83167,2.32979-4.74015,3.61126-.63154,6.897,6.65046,5.31859,14.589,8.39962,21.80775,12.726,7.34043,4.39938,7.43474,5.38151-.12223,9.35275-7.22669,3.79767-14.695,7.13825-22.08352,10.624-3.18644,1.50334-4.28775,3.613-2.91861,7.08268,1.88563,4.77855,3.39947,9.703,5.24834,14.4972,1.22837,3.18515.16939,4.98724-2.96005,5.7169-4.04932.94411-8.13827,1.71724-12.19109,2.64724-6.27082,1.43895-7.76065,5.22109-3.93711,10.43536a106.23373,106.23373,0,0,0,7.12163,8.371c1.615,1.78145,1.39108,3.37642-.32174,4.70877a14.50551,14.50551,0,0,1-5.68673,3.113c-8.82874,2.04809-16.85637,5.37749-20.46869,14.75248a5.67469,5.67469,0,0,1-.89663,1.14449c-4.82457,6.44987-11.40878,10.58846-18.4982,14.04924-5.50764,2.68858-8.44968,10.08279-6.21216,15.74282a3.73218,3.73218,0,0,0,2.32234,2.20727c2.415.85771,4.82366,1.7363,7.25879,2.53341,12.72052,4.16391,25.9002,6.37671,39.00861,8.76281,6.49547,1.18236,10.5228,3.2732,12.20891,10.55094,3.16526,13.66171,7.73485,26.993,11.52352,40.51684,3.39668,12.12457,6.54507,24.31894,9.77348,36.49032,3.94936,14.88986,7.921,29.77406,11.78712,44.6856,5.61824,21.66959,10.445,43.52168,14.86755,65.464.27825,1.3804.58167,2.86668,2.38031,2.6336,1.65151-.21406,1.42618-1.76619,1.46119-2.9407a396.79914,396.79914,0,0,1,7.65787-65.17974A176.87459,176.87459,0,0,1,453.79884,570.968c1.407-2.87669,3.69823-4.19192,6.92426-3.23366,2.92979.87023,5.82713,1.849,8.745,2.76012,9.67277,3.02037,19.2624,6.39965,29.51858,6.9332,1.04888.05458,2.4418.58032,2.78822-.91566.36618-1.58149-1.05377-1.612-2.12145-1.83275a146.43454,146.43454,0,0,1-32.13691-11.0428,101.4671,101.4671,0,0,1-38.18873-30.10468c-5.94173-7.6694-10.69426-16.03093-15.51646-24.38021-.43691-.75649-.544-2.252-1.87355-1.77876-1.39154.49531-.89165,1.9-.62723,2.88374.57013,2.12029,1.4199,4.16486,2.0061,6.28173.51142,1.84672.49392,3.62134-2.195,3.39346a28.233,28.233,0,0,1-10.90657-2.94335c-11.27714-5.924-15.58347-27.18418-5.30256-34.87706a16.54846,16.54846,0,0,0,2.59042-3.06745c1.68849-2.09969,2.2206-4.14659.4901-6.65657-2.28439-3.31329-4.04667-6.99033-6.37141-10.27148-8.44744-11.92282-8.84369-24.65639-4.36863-38.05857,2.82691-8.46621,5.24771-16.93905,5.1648-26.12133a37.59941,37.59941,0,0,1,4.44853-17.63753c5.286-9.88926,12.21385-18.805,18.90035-27.83087,19.33758-26.10317,45.9528-38.49164,77.607-41.69642,16.24444-1.64464,32.29939-.22548,48.30379,2.35564,9.18226,1.48088,18.36258,3.12341,26.95666,6.887,6.84406,2.99723,12.94512,7.30556,19.18578,11.35124,13.91585,9.02137,23.22773,21.73135,29.52446,36.86056,6.23738,14.98661,9.07731,30.90383,12.69331,46.59913,2.93042,12.71995,6.72268,25.40635,3.75123,38.70538-1.46469,6.5554-.05211,11.9335,4.76187,17.01415,10.07593,10.63411,5.264,30.73348-8.97021,36.56559-5.459,2.23672-8.42482,5.86955-10.35726,10.99508-3.822,10.13733-9.42379,19.01679-18.12532,25.75558a73.84,73.84,0,0,0-6.17123,5.75976c-7.97821,7.79665-6.18765,6.0235-1.31356,14.02447,6.92148,11.36179,14.54052,22.33353,17.51,35.64648.82063,3.6788,1.928,3.82553,4.88176,1.20522,13.78631-12.23005,24.43187-27.06511,33.91678-42.61536,16.42516-26.92852,29.45031-55.397,37.45707-86.10616C692.93855,450.45084,696.58327,428.95792,696.80936,406.90674ZM467.48322,480.84966a29.16913,29.16913,0,0,0,13.441-2.47968c14.63464-7.01856,23.75927-18.12482,24.54148-34.91274.61484-13.195-1.93855-25.34724-12.23535-34.73615-2.94819-2.68824-4.73956-2.37027-6.13711,1.362a24.0928,24.0928,0,0,1-6.72358,9.88806c-6.88121,6.052-15.33588,8.29435-24.02449,9.8077-8.67379,1.51075-17.41281,2.64392-26.10263,4.06817-3.3404.54747-5.1363,2.47574-4.77991,6.15713.52035,5.37523,1.06018,10.77052,2.9367,15.843C434.09419,471.24077,448.9893,481.00667,467.48322,480.84966Zm99.08548-7.14411c13.722.6205,22.49368-5.80706,29.062-12.67661,7.41984-7.7602,9.53766-17.54576,8.37926-28.18207-.92221-8.46742-1.12482-8.89627-9.4658-8.60225-12.14324.42807-24.25672.29611-36.27438-1.72373a37.83994,37.83994,0,0,1-14.62028-5.49657,22.49832,22.49832,0,0,1-7.37257-8.432c-1.73136-3.17143-3.65738-3.5111-5.64086-1.09994-8.7703,10.66127-13.08561,29.7202-4.33057,43.65957C535.58179,465.92116,549.21082,473.26308,566.5687,473.70555ZM259.82065,279.75872c-19.54154-.09437-32.557,14.92148-29.7654,34.34028.48658,3.38481,2.00213,4.55165,5.22641,3.79172a71.25227,71.25227,0,0,1,14.52005-1.84061q13.74685-.36216,27.49457-.68988c3.24524-.07489,6.1558-.63863,7.093-4.3852,2.574-10.28966-.85805-24.37967-12.05213-28.9049A29.99843,29.99843,0,0,0,259.82065,279.75872Zm60.84717,29.76205c8.08546.47341,16.14166.90125,24.17739,1.889,6.81793.83805,7.303.37172,8.843-6.38384,1.33152-5.84094.37654-8.14925-4.513-11.50951-4.64333-3.19109-9.95758-4.76672-15.30947-5.89141-7.77187-1.63328-15.6578-2.87176-23.62692-.961-7.7589,1.86042-13.31039,9.23955-12.66375,17.01921.27651,3.32633,1.35537,5.93576,5.47617,5.86363C308.92179,309.44415,314.79549,309.52077,320.66782,309.52077ZM373.19134,572.278a61.19771,61.19771,0,0,0-3.81385-14.127c-4.08182-9.37585-7.85428-18.88738-11.99422-28.23666-7.51361-16.96817-15.58662-33.64455-26.61013-48.71018-.91905-1.25607-1.92066-2.84918-3.29352-1.89151-1.20272.839.139,2.49728.811,3.51738,8.62009,13.0853,15.32834,27.18765,21.8183,41.37828,5.42181,11.855,10.25133,23.97938,15.55447,35.89039,4.40665,9.89741,3.09932,18.22752-5.16808,25.70989-5.23429,4.73727-9.73408,10.29936-14.45021,15.59226-4.65049,5.21917-4.6276,6.94514.20782,12.07933,6.20264,6.58592,12.59326,12.99521,18.77216,19.6029,3.31562,3.54575,6.9932,6.90132,8.51831,11.75238.48256,1.53476.79218,3.61909,2.73876,3.22011,1.80519-.3699,1.66161-2.54279,1.55913-4.09937-.21724-3.299-2.58072-5.47707-4.54606-7.76536-7.48654-8.7168-15.975-16.51511-23.28878-25.40619-1.91161-2.32389-2.01377-3.89245-.22451-6.36491,5.54489-7.66208,12.07892-14.42888,18.49108-21.31881A19.33109,19.33109,0,0,0,373.19134,572.278ZM255.23419,487.69942c-1.55433.39108-2.0522,1.82278-2.57928,2.938-2.75151,5.82129-5.43468,11.67962-7.95456,17.60465-6.00012,14.10809-12.17673,28.14271-17.24927,42.63268-2.5708,7.34367-5.661,14.50461-8.27567,21.834-2.64789,7.42244-1.53455,13.83106,4.534,19.64361,5.6267,5.38936,11.40944,10.701,16.323,16.8253,2.52456,3.14664,2.28265,6.24417.26064,9.43-.78311,1.2339-1.8115,2.32811-2.47568,3.61613-.47085.91306-1.03306,2.1702.12482,3.00606,1.03353.74608,1.86085-.11563,2.52423-.81835,2.09749-2.222,4.25225-4.4036,6.18307-6.76577,2.28969-2.8012,2.34436-5.79419.08282-8.71262a41.15032,41.15032,0,0,0-5.7039-6.17064c-4.918-4.21-10.045-8.19191-14.29311-13.141-4.117-4.79635-5.57834-9.92022-3.6283-16.26613,1.76639-5.74832,4.53523-11.05743,6.37709-16.74762,5.78321-17.86651,13.15976-35.10058,20.83924-52.21361q2.91078-6.4865,5.58838-13.07622C256.40794,490.0992,256.6667,488.68936,255.23419,487.69942Zm76.907,87.54549c.04139-6.37868-.82126-12.70242-1.14538-19.057a428.82118,428.82118,0,0,0-4.46314-46.73313c-.83361-5.1508-1.57488-10.39088-3.41291-15.34629-.28013-.7552-.40644-1.9157-1.533-1.71462-1.12825.20136-.83719,1.32641-.83942,2.13676-.00884,3.20557,1.07128,6.27006,1.40466,9.39264,1.41521,13.25514,2.70907,26.5307,3.64955,39.82691q1.47627,20.87121,3.57576,41.68035c.12738,1.26262-.0494,3.31621,1.58261,3.18138,1.54973-.1281,1.131-2.177,1.15792-3.45374C332.18738,581.85511,332.14115,578.54949,332.14115,575.24491Zm-76.37871-2.24107c0,3.79387-.048,7.58874.02954,11.381.023,1.12519-.25367,2.96135,1.29247,2.94281,1.40645-.01687,1.25165-1.82395,1.40861-3.0003.0807-.60488.06885-1.22147.11657-1.83141.553-7.07135,1.09468-14.14364,1.66813-21.21329,1.2464-15.36591,2.50825-30.73218,3.03114-46.14284.06859-2.02082,1.07011-5.62407-1.15238-5.751-2.28385-.13039-2.23508,3.54333-2.467,5.76191C257.679,534.38523,256.90089,553.70306,255.76244,573.00384Z" transform="translate(-81.8929 -81)"/>
</svg>
